<?xml version="1.0" standalone="no"?>
<!DOCTYPE svg PUBLIC "-//W3C//DTD SVG 20010904//EN"
 "http://www.w3.org/TR/2001/REC-SVG-20010904/DTD/svg10.dtd">
<svg version="1.0" xmlns="http://www.w3.org/2000/svg"
 width="1024.000000pt" height="870.000000pt" viewBox="0 0 1024.000000 870.000000"
 preserveAspectRatio="xMidYMid meet">

<g transform="translate(0.000000,870.000000) scale(0.100000,-0.100000)"
fill="#000000" stroke="none">
<path d="M2285 8139 c-341 -36 -584 -104 -856 -239 -392 -195 -695 -484 -867
-825 -68 -136 -92 -232 -92 -366 0 -230 76 -808 201 -1529 17 -96 39 -224 49
-285 32 -185 78 -436 150 -825 17 -91 38 -203 47 -250 42 -229 75 -367 98
-418 77 -167 256 -372 400 -459 140 -84 404 -161 765 -223 30 -5 86 -14 123
-21 37 -6 70 -9 72 -7 3 3 -29 22 -71 44 -162 83 -212 160 -152 235 7 9 59 39
116 68 235 121 365 258 442 469 16 45 28 82 26 82 -3 0 -32 -37 -65 -83 -77
-107 -201 -235 -271 -279 -79 -50 -151 -72 -216 -65 -163 17 -285 145 -370
388 -27 77 -74 255 -74 281 0 18 25 28 220 82 391 109 852 200 1145 226 150
13 393 37 505 50 47 6 148 17 225 25 177 19 450 52 535 65 36 5 70 10 75 10 6
0 6 3 -1 8 -11 8 -44 152 -44 194 0 17 -7 29 -18 32 -23 8 -423 -10 -547 -24
-49 -5 -118 -13 -152 -16 l-61 -7 -11 54 c-17 88 -41 238 -41 257 0 16 15 20
112 29 70 7 115 8 119 2 3 -5 11 -46 19 -90 12 -79 13 -80 39 -75 33 7 222 23
371 32 63 3 118 8 121 10 3 2 -3 42 -13 90 -10 48 -17 93 -14 100 3 7 -2 15
-10 18 -13 5 -324 -9 -654 -30 l-106 -7 -27 163 c-14 90 -24 166 -22 171 3 4
44 10 93 14 48 3 98 7 111 8 24 2 26 -3 41 -80 9 -45 19 -85 22 -89 4 -3 67
-1 140 5 73 6 186 14 250 17 113 6 118 8 113 28 -2 11 -9 44 -15 71 -5 28 -12
66 -14 85 l-3 35 -189 -3 c-104 -1 -271 -8 -372 -14 -100 -6 -185 -8 -188 -5
-8 8 -54 263 -54 299 0 26 2 26 78 32 42 4 94 9 114 11 42 6 39 12 57 -104 6
-35 12 -65 14 -67 2 -2 52 1 113 6 60 5 171 12 247 16 91 4 137 10 137 18 0 6
-7 38 -15 71 -18 75 -19 115 -2 116 6 0 3 4 -8 8 -21 8 -495 -2 -656 -15 l-95
-7 -11 54 c-18 85 -47 288 -42 293 2 2 56 5 119 7 l115 4 14 -89 14 -88 106 6
c58 3 168 9 244 12 100 5 137 10 137 19 0 7 -7 47 -16 90 -18 86 -15 104 18
107 13 1 -33 4 -102 8 -102 6 -393 0 -620 -12 l-44 -2 -29 163 c-15 90 -26
165 -24 167 2 2 54 8 116 12 130 9 123 14 136 -94 9 -83 13 -88 71 -81 27 4
130 10 229 13 99 4 182 8 184 11 3 2 -3 42 -12 90 -9 47 -14 90 -11 94 3 5 17
9 32 9 15 0 33 4 41 9 27 17 -122 24 -394 18 -148 -4 -299 -11 -335 -16 -35
-6 -66 -9 -67 -7 -6 6 -62 350 -58 355 2 2 56 6 119 9 l114 5 6 -29 c3 -16 11
-60 17 -98 l12 -69 150 6 c83 4 187 7 232 7 l83 0 -14 73 c-8 39 -17 87 -20
105 l-6 32 43 0 c39 1 42 2 24 13 -15 9 -118 12 -397 12 l-378 0 -9 50 c-19
97 -43 256 -39 260 1 2 55 5 118 7 l115 3 15 -85 15 -85 58 0 c31 1 133 2 226
3 l168 2 -8 48 c-4 26 -11 66 -15 90 l-7 42 44 0 c24 0 60 -3 79 -6 l35 -6 48
-281 c26 -155 141 -838 256 -1517 231 -1367 237 -1409 200 -1561 -24 -99 -66
-199 -85 -199 -17 0 -17 -1 -14 140 1 96 -2 124 -19 171 -26 68 -57 88 -93 60
-22 -19 -23 -24 -24 -208 -2 -206 -14 -283 -59 -375 -29 -59 -78 -118 -99
-118 -8 0 -19 7 -27 16 -10 13 -10 21 0 47 74 178 100 466 51 557 -24 44 -86
64 -121 37 -31 -23 -39 -79 -38 -257 1 -226 -20 -321 -92 -426 -32 -47 -104
-104 -131 -104 -27 0 -23 29 22 142 68 172 86 334 55 481 -17 84 -46 127 -83
127 -67 0 -102 -60 -102 -173 0 -263 -85 -522 -213 -650 -54 -54 -158 -114
-176 -102 -21 12 -10 34 65 131 85 111 107 149 140 248 49 143 67 314 41 381
-36 92 -86 132 -155 123 -92 -13 -117 -60 -107 -206 11 -161 -31 -316 -122
-454 -52 -79 -115 -135 -237 -212 -94 -59 -116 -66 -136 -41 -18 22 -4 47 67
125 162 177 263 387 263 549 0 117 -41 169 -123 158 -68 -9 -102 -53 -143
-187 -46 -147 -89 -240 -155 -336 -69 -99 -145 -167 -264 -234 -136 -77 -161
-120 -105 -183 35 -41 114 -77 231 -108 l86 -23 159 23 c181 25 369 60 527 98
60 14 111 23 113 20 5 -5 42 -260 78 -532 31 -236 38 -348 34 -485 -4 -135 -5
-142 -39 -206 -27 -53 -46 -76 -91 -107 -32 -23 -59 -39 -62 -36 -2 2 5 56 16
119 12 72 20 169 21 260 2 124 -2 166 -27 288 -15 78 -31 142 -36 142 -19 0
-449 -96 -455 -102 -2 -2 3 -30 11 -63 24 -94 35 -339 18 -395 -21 -70 -104
-181 -191 -254 -43 -36 -79 -63 -81 -61 -2 2 3 14 12 27 25 38 46 147 46 239
0 114 -30 288 -92 528 -70 274 -72 280 -66 286 2 3 101 29 219 59 262 67 371
95 384 101 21 10 -113 -8 -408 -56 l-308 -51 -227 37 c-125 20 -269 45 -319
56 -84 17 -153 24 -153 16 0 -4 293 -881 305 -912 28 -75 110 -230 149 -282
95 -126 168 -158 295 -129 39 9 76 14 80 11 12 -7 145 82 209 140 65 59 138
159 163 225 12 32 19 76 19 123 0 91 7 117 31 117 15 0 19 -8 20 -32 1 -31 1
-222 0 -315 l-1 -43 -50 31 c-48 29 -70 31 -70 6 0 -7 29 -30 64 -52 l63 -39
3 -230 c1 -127 3 -262 5 -301 1 -38 4 -243 5 -455 2 -212 5 -422 8 -467 l4
-83 145 0 144 0 -6 477 c-3 263 -8 584 -10 713 l-5 235 52 19 c154 55 241 160
269 326 13 82 11 294 -6 480 -16 179 -62 589 -71 632 -5 26 -3 27 122 67 213
69 385 149 509 236 117 84 252 241 319 373 67 132 126 384 126 537 0 53 -59
424 -196 1228 -347 2048 -344 2032 -385 2155 -25 77 -78 187 -122 252 -34 52
-138 161 -182 193 l-30 22 30 -36 c17 -20 51 -60 76 -90 65 -76 122 -176 159
-277 33 -90 74 -267 66 -281 -3 -4 -40 -3 -83 3 -43 5 -220 10 -393 10 -405 0
-628 -24 -1050 -114 -74 -15 -200 -41 -280 -56 -298 -56 -603 -146 -835 -245
-90 -39 -115 -46 -115 -31 0 4 -7 40 -15 81 -9 41 -22 135 -30 210 -26 240 5
424 88 538 42 55 109 118 152 140 11 6 70 14 130 17 180 12 289 -26 363 -125
153 -205 190 -240 275 -259 95 -21 167 13 167 79 0 27 -52 143 -89 195 -61 89
-201 201 -340 271 -29 14 -50 30 -45 35 12 11 137 41 198 47 40 4 67 -1 121
-21 146 -56 188 -100 301 -317 91 -176 128 -230 174 -254 36 -19 67 -8 104 35
29 35 29 49 -1 140 -54 160 -231 397 -330 443 -44 20 -22 27 82 27 111 0 109
0 198 -58 68 -45 145 -174 187 -312 37 -126 84 -196 153 -232 l41 -20 19 23
c22 27 19 50 -19 147 -87 222 -194 380 -292 431 l-37 20 93 1 c64 0 104 -5
125 -15 55 -26 169 -145 207 -215 37 -69 39 -73 96 -220 20 -52 45 -107 56
-122 20 -30 55 -37 76 -16 48 48 -70 364 -180 479 -29 31 -62 61 -73 67 -17
10 -18 13 -5 22 13 9 13 10 0 10 -8 0 -46 5 -85 11 -249 36 -630 49 -830 28z
m801 -1209 c6 -36 8 -68 5 -71 -3 -4 -49 -12 -101 -18 -119 -15 -269 -44 -295
-58 -11 -6 -42 -13 -70 -17 -463 -63 -952 -192 -1292 -342 -12 -6 -33 75 -33
131 0 31 4 35 58 60 313 146 722 258 1182 325 222 32 451 58 495 57 l40 -2 11
-65z m59 -352 c12 -57 23 -133 19 -137 -9 -9 -211 -41 -514 -81 -345 -46 -815
-163 -1139 -284 -68 -26 -125 -45 -127 -43 -2 2 -10 39 -17 82 l-14 78 71 32
c338 154 889 287 1471 354 224 27 243 26 250 -1z m74 -441 c6 -35 11 -68 11
-73 0 -6 -48 -16 -107 -23 -160 -19 -384 -60 -418 -75 -16 -8 -50 -17 -75 -21
-75 -11 -440 -84 -520 -104 -184 -46 -287 -76 -450 -132 -238 -82 -217 -79
-224 -30 -19 132 -22 118 21 139 127 65 519 185 808 247 272 58 752 130 891
134 l52 1 11 -63z m61 -357 c4 -14 10 -49 13 -77 6 -49 4 -53 -16 -57 -12 -2
-92 -14 -177 -26 -85 -12 -207 -32 -270 -45 -167 -35 -205 -43 -405 -82 -290
-56 -630 -148 -855 -231 -40 -15 -57 -17 -61 -9 -12 20 -29 151 -21 158 23 20
254 100 490 169 137 40 488 116 677 147 141 22 587 81 604 80 8 -1 18 -13 21
-27z m76 -456 c8 -48 8 -67 0 -70 -6 -2 -66 -10 -133 -19 -160 -20 -383 -61
-458 -84 -33 -11 -157 -37 -275 -60 -299 -58 -545 -120 -780 -196 -74 -24
-136 -43 -137 -41 -2 2 -8 32 -14 67 -5 35 -12 71 -15 80 -4 13 11 23 64 43
169 65 408 134 692 200 177 41 484 94 756 130 227 30 266 34 279 23 6 -4 15
-37 21 -73z m63 -377 c6 -35 11 -70 11 -78 0 -12 -37 -20 -162 -38 -203 -28
-410 -67 -463 -86 -22 -8 -103 -26 -180 -40 -225 -41 -555 -119 -765 -180
-107 -31 -202 -58 -210 -58 -11 -2 -18 19 -29 76 -13 68 -13 80 0 88 23 14
311 105 459 144 296 79 687 153 1080 204 85 12 166 22 180 25 68 10 67 11 79
-57z m68 -404 c6 -38 7 -71 4 -76 -4 -4 -59 -16 -122 -27 -127 -21 -360 -69
-371 -76 -4 -3 -115 -25 -245 -49 -375 -69 -632 -128 -883 -201 -178 -53 -172
-54 -187 31 -6 39 -12 75 -12 82 -1 20 389 135 654 193 55 12 138 30 185 40
191 42 844 146 936 149 30 1 31 0 41 -66z m386 -125 c3 -13 9 -51 13 -85 6
-57 5 -63 -12 -63 -11 0 -61 -5 -113 -10 -52 -6 -96 -8 -99 -5 -7 7 -32 158
-27 163 7 7 108 19 171 21 56 1 62 -1 67 -21z m-539 -2535 c-6 -95 -8 -103
-35 -129 l-29 -28 0 67 c0 37 5 87 12 111 8 30 9 54 2 77 -9 30 -7 37 15 62
l26 27 7 -42 c4 -24 5 -89 2 -145z m-28 -225 c-4 -24 -13 -68 -20 -98 l-14
-55 -1 86 c-1 54 3 89 11 97 22 22 30 12 24 -30z"/>
<path d="M3326 8052 c21 -16 74 -66 116 -111 77 -83 83 -94 205 -347 13 -28
35 -57 49 -64 22 -12 27 -11 46 7 64 64 -18 233 -199 410 -88 86 -167 133
-224 133 l-32 0 39 -28z"/>
<path d="M8439 7246 c-96 -26 -140 -71 -126 -128 18 -71 204 -62 285 15 31 30
41 67 24 94 -20 32 -103 41 -183 19z"/>
<path d="M5503 7225 c-86 -52 -135 -167 -134 -314 0 -179 36 -268 248 -625
112 -188 133 -233 133 -290 0 -54 -18 -79 -59 -79 -54 0 -103 65 -157 209 -29
79 -44 94 -93 94 -65 0 -64 3 -32 -207 16 -105 32 -196 35 -202 12 -19 53 -12
86 15 l31 27 51 -24 c129 -60 267 -2 330 138 42 94 41 280 -2 408 -26 77 -88
200 -199 394 -83 144 -141 272 -141 311 0 35 19 60 45 60 37 0 81 -53 131
-156 24 -51 51 -100 60 -108 19 -20 102 -22 110 -3 4 11 -36 287 -51 355 -5
18 -12 22 -45 22 -32 0 -43 -6 -61 -29 l-21 -29 -62 29 c-79 38 -144 39 -203
4z"/>
<path d="M6250 7195 c-21 -77 -137 -185 -197 -185 -26 0 -36 -27 -31 -81 2
-29 7 -34 31 -37 l27 -3 0 -477 c1 -631 -13 -592 212 -592 l148 0 0 37 c0 29
-7 43 -35 69 l-35 32 0 465 0 466 38 3 37 3 3 58 3 57 -41 0 -40 0 0 115 0
115 -54 0 -53 0 -13 -45z"/>
<path d="M7814 7205 c-8 -33 3 -75 20 -75 28 0 37 -28 34 -109 l-3 -80 -55 37
c-45 30 -65 37 -117 40 -54 4 -69 1 -108 -22 -120 -71 -165 -234 -165 -607 0
-318 50 -487 165 -554 78 -46 162 -36 253 32 l32 24 0 -35 0 -36 175 0 175 0
0 43 c0 36 -4 44 -30 59 l-30 17 -2 643 -3 643 -167 3 -167 2 -7 -25z m31
-357 l25 -11 0 -410 c0 -408 0 -411 -22 -434 -28 -30 -72 -30 -92 -1 -23 33
-24 784 -1 828 21 40 46 48 90 28z"/>
<path d="M9012 6999 c-109 -43 -202 -175 -237 -334 -23 -103 -30 -304 -16
-419 20 -155 61 -254 138 -337 130 -139 328 -139 461 0 55 57 103 148 126 238
39 148 43 359 11 517 -30 144 -116 270 -220 324 -70 36 -188 41 -263 11z m164
-110 c18 -20 19 -42 19 -453 0 -237 -3 -443 -8 -458 -17 -61 -73 -78 -104 -31
-17 25 -18 62 -18 453 0 234 3 437 8 452 16 58 67 76 103 37z"/>
<path d="M6537 7004 c-4 -4 -7 -27 -7 -50 0 -35 5 -47 25 -60 l25 -16 0 -433
c0 -249 4 -455 10 -486 18 -95 67 -140 160 -147 50 -4 69 0 114 22 29 14 71
40 92 57 l39 31 5 -39 c9 -64 6 -63 181 -63 l159 0 1 33 c2 51 -1 61 -27 85
l-24 23 0 525 0 524 -167 -2 -168 -3 -3 -40 c-2 -33 2 -45 23 -65 l25 -23 0
-423 0 -423 -22 -15 c-31 -22 -61 -20 -84 5 -18 20 -19 47 -24 503 l-5 481
-161 3 c-88 1 -163 -1 -167 -4z"/>
<path d="M8297 7004 c-11 -11 -8 -104 2 -104 5 0 17 -7 25 -16 14 -14 16 -70
16 -473 l0 -457 -25 -22 c-20 -17 -25 -31 -25 -67 l0 -45 193 2 192 3 3 42 c3
34 -2 46 -22 65 l-26 23 -2 525 -3 525 -161 3 c-88 1 -163 -1 -167 -4z"/>
<path d="M6025 5116 c-16 -12 -56 -15 -207 -16 l-186 0 -6 -62 c-3 -35 -13
-177 -22 -317 -17 -275 -17 -276 36 -265 45 10 48 12 55 43 8 39 54 88 90 97
39 10 76 -12 100 -61 18 -36 20 -60 20 -267 l0 -226 -25 -27 c-20 -22 -32 -25
-69 -23 -34 2 -48 9 -64 30 -18 24 -19 31 -7 91 20 108 -12 167 -91 167 -105
0 -140 -132 -68 -258 54 -95 143 -139 267 -130 165 12 303 132 341 298 6 25
11 79 11 121 0 179 -92 328 -232 375 -62 20 -177 15 -226 -10 -19 -10 -36 -15
-39 -13 -3 3 -2 55 2 116 l8 111 191 2 191 3 6 45 c4 25 8 77 10 115 l4 70
-35 3 c-20 2 -44 -4 -55 -12z"/>
<path d="M6505 5107 c-62 -21 -97 -42 -136 -84 -49 -50 -70 -94 -76 -158 -10
-99 33 -165 107 -165 81 0 117 64 107 191 -6 68 -4 80 14 103 40 51 119 27
139 -42 14 -53 12 -226 -5 -305 -24 -115 -104 -240 -289 -450 l-86 -99 0 -99
0 -99 310 0 c293 0 310 1 319 19 11 19 61 277 61 312 0 16 -7 19 -45 19 -43 0
-44 -1 -56 -42 -23 -80 -17 -78 -243 -78 l-201 1 45 40 c25 22 92 79 150 127
183 151 231 196 269 254 74 110 91 261 41 375 -27 62 -101 136 -167 165 -59
26 -200 34 -258 15z"/>
<path d="M8187 5110 c-95 -24 -182 -96 -213 -175 -11 -31 -15 -64 -12 -109 3
-56 8 -70 33 -96 23 -24 37 -30 72 -30 82 0 119 71 107 204 -6 67 -5 75 15 95
48 48 126 10 142 -69 22 -115 1 -295 -46 -395 -33 -70 -144 -217 -254 -339
l-81 -90 0 -103 0 -103 310 0 310 0 10 25 c18 46 60 309 51 318 -4 4 -26 7
-47 5 -36 -3 -39 -6 -51 -48 -22 -78 -28 -80 -244 -80 -112 0 -189 4 -189 9 0
10 133 127 270 238 163 132 227 218 250 340 43 217 -99 398 -318 409 -42 2
-94 -1 -115 -6z"/>
<path d="M8971 5109 c-77 -23 -152 -95 -203 -192 -75 -147 -94 -519 -38 -725
37 -136 114 -242 203 -282 55 -25 148 -26 202 -1 95 43 187 179 222 328 26
111 26 425 0 536 -35 146 -117 271 -211 319 -46 23 -128 31 -175 17z m99 -99
c13 -8 15 -77 18 -499 2 -481 2 -491 -18 -511 -27 -27 -56 -25 -75 4 -14 20
-15 83 -13 503 3 512 3 513 52 513 11 0 28 -5 36 -10z"/>
<path d="M7268 4515 c-21 -7 -58 -28 -83 -45 -200 -138 -173 -441 50 -550 42
-21 64 -25 145 -25 81 0 103 4 145 25 246 120 246 461 0 580 -62 30 -198 38
-257 15z"/>
<path d="M7306 3214 c-3 -9 -6 -516 -6 -1129 0 -911 2 -1115 13 -1124 37 -30
37 -16 37 1125 0 612 -3 1119 -6 1128 -3 9 -12 16 -19 16 -7 0 -16 -7 -19 -16z"/>
<path d="M7225 2998 c-3 -7 -4 -420 -3 -918 3 -897 3 -905 23 -905 20 0 20 7
20 915 0 864 -1 915 -18 918 -9 2 -19 -2 -22 -10z"/>
<path d="M7385 2998 c-3 -7 -4 -420 -3 -918 3 -897 3 -905 23 -905 20 0 20 7
20 915 0 864 -1 915 -18 918 -9 2 -19 -2 -22 -10z"/>
<path d="M7147 2783 c-4 -3 -7 -316 -7 -695 0 -622 2 -689 16 -695 9 -3 20 0
25 8 10 16 13 1348 3 1373 -6 16 -26 21 -37 9z"/>
<path d="M7466 2775 c-10 -26 -7 -1358 3 -1374 5 -8 16 -11 25 -8 15 6 16 70
14 699 -3 630 -4 693 -19 696 -9 2 -19 -4 -23 -13z"/>
<path d="M6175 2768 c-3 -7 -4 -317 -3 -688 3 -592 5 -675 18 -675 13 0 15 83
15 684 0 538 -3 685 -12 688 -7 3 -15 -1 -18 -9z"/>
<path d="M8445 2768 c-3 -7 -4 -317 -3 -688 3 -592 5 -675 18 -675 13 0 15 83
15 684 0 538 -3 685 -12 688 -7 3 -15 -1 -18 -9z"/>
<path d="M6900 2090 c0 -643 0 -650 20 -650 20 0 20 7 20 650 0 643 0 650 -20
650 -20 0 -20 -7 -20 -650z"/>
<path d="M7710 2090 c0 -643 0 -650 20 -650 20 0 20 7 20 650 0 643 0 650 -20
650 -20 0 -20 -7 -20 -650z"/>
<path d="M6497 2623 c-12 -11 -8 -1061 3 -1068 6 -4 17 -1 25 5 13 11 15 89
15 525 0 283 -3 520 -6 529 -6 16 -26 21 -37 9z"/>
<path d="M8122 2618 c-9 -9 -12 -137 -12 -529 0 -453 2 -518 15 -529 10 -9 19
-10 26 -3 13 13 7 1065 -6 1070 -6 2 -16 -2 -23 -9z"/>
<path d="M6735 2538 c-3 -7 -4 -213 -3 -458 3 -437 3 -445 23 -445 20 0 20 7
20 455 0 425 -1 455 -18 458 -9 2 -19 -2 -22 -10z"/>
<path d="M7875 2538 c-3 -7 -4 -213 -3 -458 3 -437 3 -445 23 -445 20 0 20 7
20 455 0 425 -1 455 -18 458 -9 2 -19 -2 -22 -10z"/>
<path d="M6095 2528 c-3 -7 -4 -209 -3 -448 3 -379 5 -435 18 -435 13 0 15 56
15 444 0 347 -3 445 -12 448 -7 3 -15 -1 -18 -9z"/>
<path d="M8525 2528 c-3 -7 -4 -209 -3 -448 3 -379 5 -435 18 -435 13 0 15 56
15 444 0 347 -3 445 -12 448 -7 3 -15 -1 -18 -9z"/>
<path d="M5935 2498 c-3 -7 -4 -195 -3 -418 3 -397 3 -405 23 -405 20 0 20 7
20 415 0 387 -1 415 -18 418 -9 2 -19 -2 -22 -10z"/>
<path d="M6257 2503 c-4 -3 -7 -190 -7 -415 0 -365 2 -409 16 -415 9 -3 20 0
25 8 10 16 13 788 3 813 -6 16 -26 21 -37 9z"/>
<path d="M8356 2495 c-10 -26 -7 -798 3 -814 5 -8 16 -11 25 -8 15 6 16 47 14
419 -3 372 -5 413 -19 416 -9 2 -19 -4 -23 -13z"/>
<path d="M6826 2491 c-4 -5 -6 -186 -6 -402 0 -383 3 -430 30 -403 15 15 9
806 -7 811 -6 2 -14 0 -17 -6z"/>
<path d="M7797 2493 c-4 -3 -7 -185 -7 -404 0 -390 3 -430 31 -402 10 10 14
787 4 804 -7 11 -19 12 -28 2z"/>
<path d="M6577 2484 c-4 -4 -7 -182 -7 -396 0 -347 2 -389 16 -395 9 -3 20 0
25 8 5 8 8 186 6 399 -2 338 -4 385 -17 388 -9 1 -19 0 -23 -4z"/>
<path d="M8036 2475 c-10 -26 -7 -758 3 -774 5 -8 16 -11 25 -8 15 6 16 46 14
399 -3 353 -5 393 -19 396 -9 2 -19 -4 -23 -13z"/>
<path d="M7067 2453 c-4 -3 -7 -168 -7 -365 0 -320 2 -359 16 -365 9 -3 20 0
25 8 10 16 13 688 3 713 -6 16 -26 21 -37 9z"/>
<path d="M7546 2445 c-10 -26 -7 -698 3 -714 5 -8 16 -11 25 -8 15 6 16 43 14
369 -3 326 -5 363 -19 366 -9 2 -19 -4 -23 -13z"/>
<path d="M5615 2427 c-3 -6 -4 -163 -3 -347 3 -310 4 -335 21 -338 16 -3 17
19 17 347 0 309 -2 351 -15 351 -9 0 -18 -6 -20 -13z"/>
<path d="M8682 2428 c-9 -9 -12 -101 -12 -338 0 -333 4 -366 37 -339 10 9 13
79 13 339 0 260 -3 330 -13 339 -10 8 -17 7 -25 -1z"/>
<path d="M9000 2090 c0 -329 1 -351 18 -348 16 3 17 28 17 348 0 320 -1 345
-17 348 -17 3 -18 -19 -18 -348z"/>
<path d="M6655 2408 c-3 -7 -4 -155 -3 -328 3 -307 3 -315 23 -315 20 0 20 7
20 325 0 302 -1 325 -18 328 -9 2 -19 -3 -22 -10z"/>
<path d="M6980 2090 c0 -323 0 -330 20 -330 20 0 20 7 20 330 0 323 0 330 -20
330 -20 0 -20 -7 -20 -330z"/>
<path d="M7630 2090 c0 -323 0 -330 20 -330 20 0 20 7 20 330 0 323 0 330 -20
330 -20 0 -20 -7 -20 -330z"/>
<path d="M7955 2408 c-3 -7 -4 -155 -3 -328 3 -307 3 -315 23 -315 20 0 20 7
20 325 0 302 -1 325 -18 328 -9 2 -19 -3 -22 -10z"/>
<path d="M6417 2393 c-4 -3 -7 -141 -7 -305 0 -265 2 -299 16 -305 9 -3 20 0
25 8 10 16 13 568 3 593 -6 16 -26 21 -37 9z"/>
<path d="M8196 2385 c-9 -26 -7 -578 3 -594 5 -8 16 -11 25 -8 15 6 16 38 14
309 -3 270 -5 303 -19 306 -9 2 -19 -4 -23 -13z"/>
<path d="M5777 2353 c-4 -3 -7 -123 -7 -265 0 -228 2 -259 16 -265 9 -3 20 0
25 8 10 16 13 488 3 513 -6 16 -26 21 -37 9z"/>
<path d="M6015 2348 c-3 -7 -4 -128 -3 -268 3 -219 5 -255 18 -255 13 0 15 36
15 264 0 203 -3 265 -12 268 -7 3 -15 -1 -18 -9z"/>
<path d="M8605 2348 c-3 -7 -4 -128 -3 -268 3 -219 5 -255 18 -255 13 0 15 36
15 264 0 203 -3 265 -12 268 -7 3 -15 -1 -18 -9z"/>
<path d="M8836 2345 c-9 -26 -7 -498 3 -514 5 -8 16 -11 25 -8 15 6 16 35 14
269 -3 233 -5 263 -19 266 -9 2 -19 -4 -23 -13z"/>
<path d="M5857 2283 c-4 -3 -7 -91 -7 -195 0 -164 2 -189 16 -195 9 -3 20 0
25 8 10 16 12 348 3 373 -6 16 -26 21 -37 9z"/>
<path d="M6330 2095 c0 -170 2 -196 16 -202 9 -3 20 0 25 8 10 16 12 348 3
373 -3 9 -15 16 -25 16 -18 0 -19 -10 -19 -195z"/>
<path d="M8276 2274 c-3 -9 -6 -91 -6 -184 0 -93 3 -175 6 -184 3 -9 15 -16
25 -16 18 0 19 10 19 200 0 190 -1 200 -19 200 -10 0 -22 -7 -25 -16z"/>
<path d="M8756 2275 c-9 -26 -7 -358 3 -374 5 -8 16 -11 25 -8 15 6 16 29 14
199 -3 169 -5 193 -19 196 -9 2 -19 -4 -23 -13z"/>
<path d="M5454 2257 c-2 -7 -3 -87 -2 -177 3 -139 5 -165 18 -165 13 0 15 28
18 178 2 155 0 177 -13 177 -9 0 -18 -6 -21 -13z"/>
<path d="M5697 2263 c-4 -3 -7 -82 -7 -175 0 -145 2 -169 16 -175 9 -3 20 0
25 8 10 16 12 308 3 333 -6 16 -26 21 -37 9z"/>
<path d="M8916 2255 c-9 -25 -7 -318 3 -334 5 -8 16 -11 25 -8 15 6 16 27 14
179 -3 150 -5 173 -19 176 -9 2 -19 -4 -23 -13z"/>
<path d="M9162 2093 c3 -150 5 -178 18 -178 13 0 15 26 15 175 0 159 -2 175
-18 178 -16 3 -17 -9 -15 -175z"/>
<path d="M5534 2237 c-2 -7 -3 -78 -2 -157 3 -129 5 -145 21 -148 16 -3 17 10
17 157 0 138 -2 161 -15 161 -9 0 -18 -6 -21 -13z"/>
<path d="M9080 2090 c0 -148 1 -161 18 -158 15 3 17 19 17 158 0 139 -2 155
-17 158 -17 3 -18 -10 -18 -158z"/>
<path d="M5291 2221 c-17 -31 -14 -243 3 -267 29 -38 37 -4 34 141 -3 139 -13
172 -37 126z"/>
<path d="M9327 2233 c-13 -12 -8 -281 5 -289 26 -16 38 29 38 144 0 125 -15
174 -43 145z"/>
<path d="M5375 2177 c-3 -7 -5 -52 -3 -98 2 -67 6 -84 18 -84 12 0 15 17 15
94 0 67 -4 96 -12 98 -7 3 -15 -2 -18 -10z"/>
<path d="M9245 2177 c-3 -7 -5 -52 -3 -98 2 -67 6 -84 18 -84 12 0 15 17 15
94 0 67 -4 96 -12 98 -7 3 -15 -2 -18 -10z"/>
</g>
</svg>
